<?xml version="1.0" encoding="UTF-8"?><svg id="Layer_2" xmlns="http://www.w3.org/2000/svg" viewBox="0 0 292.45 90.63"><defs><style>.cls-1{fill:#b7bcdb;}.cls-1,.cls-2,.cls-3,.cls-4,.cls-5,.cls-6,.cls-7{stroke-width:0px;}.cls-2{fill:#5a47db;}.cls-3{fill:#6260f9;}.cls-8{fill:#ffbd55;font-family:FranklinGothic-Demi, 'Franklin Gothic Demi';font-size:51.72px;font-weight:300;}.cls-4{fill:#5d54ea;}.cls-5{fill:#2fcede;}.cls-6{fill:#5276b8;}.cls-7{fill:#fff;}</style></defs><g id="Layer_1-2"><path class="cls-5" d="M36.74,27.12c7.64,3.02,12.76,8.62,14.32,17.24.11.63.3,1.18.68,1.71.78,1.09.8,2.3.09,3.39-.51.78-.7,1.6-.89,2.48-1.18,5.6-4.01,10.18-8.67,13.53-9.69,6.97-23.2,5-30.5-4.92-1.76-2.4-2.92-5.1-3.57-8-.13-.59-.35-1-.88-1.39-1.82-1.35-1.91-3.51-.2-5.03.53-.47.71-.99.79-1.62.42-3.09,1.63-5.88,3.29-8.47.41-.64.35-1.01-.24-1.4-.52-.35-1.01-.73-1.52-1.09-1.8-1.3-1.78-1.29-2.94.6-2.33,3.81-3.66,8.04-3.81,12.39-.18,5.05.98,9.98,3.59,14.47,7.41,12.72,23.01,17.17,36.01,10.26,10.11-5.37,15.04-16.22,13.72-26.43-1.46-11.32-7.77-18.88-18.5-22.52-6.7-2.27-13.36-1.6-19.76,1.47-1.1.53-2.33-.27-2.39-1.51-.02-.43.29-.52.55-.65,6.27-3.14,12.84-4.12,19.73-2.66,5.29,1.12,9.99,3.54,13.92,7.16,3.28,3.02,5.78,6.71,7.38,10.95,3.33,8.84,2.61,17.43-1.97,25.58-3.11,5.52-7.75,9.53-13.59,12.13C23.4,82.78,2.32,70.8.2,51.23c-.74-6.83.57-13.32,4.35-19.17,1.91-2.96,4.24-5.56,7.05-7.72.74-.56,1.07-.42,1.56.27,2.44,3.5,4.95,6.96,7.38,10.47.6.87,1,1.12,2.08.52,6.45-3.64,14.52-1.77,18.47,4.28,3.8,5.83,3.14,13.33-2.06,18.2-.6.56-.95,1.12-1.04,2.02-.24,2.43-2.96,3.61-4.92,2.16-.67-.5-1.26-.61-2.07-.55-5.63.41-10.2-1.6-13.27-6.38-3.04-4.73-3.05-9.67-.32-14.58.46-.83.5-1.37-.42-1.81-.32-.15-.61-.36-.9-.57-2.31-1.68-2.32-1.69-3.65.86-.66,1.27-1.08,2.64-1.46,4.02-.34,1.24-.65,2.36.6,3.48,1.11,1,.91,2.8-.23,3.99-.48.51-.52.94-.39,1.54,2.62,12.01,17,18.35,27.74,12.27,4.82-2.73,7.84-6.79,9.34-12.07.26-.9.26-1.47-.68-2.09-1.82-1.22-1.81-3.81,0-4.97.95-.61.94-1.21.74-2.1-2-8.95-10.85-15.37-20.12-14.57-2.39.21-4.68.77-6.79,1.9-1.47.78-1.46-.54-1.93-1.18-.63-.86.17-1.05.7-1.31,5.31-2.57,10.78-2.76,16.79-1ZM18.44,45.27c-.73,2.22-.42,5.5,1.5,8.47,2.42,3.74,6.2,6.03,11.04,5.25.53-.09.88-.3,1.16-.77.76-1.31,1.95-1.83,3.4-1.55.68.13,1.11-.09,1.55-.5,3.03-2.84,4.14-6.32,3.49-10.39-1.21-7.63-10.04-11.74-16.71-7.82-.76.45-.76.8-.27,1.44.86,1.13,1.75,2.26,2.46,3.49.6,1.04,1.14,1.43,2.39.93,1.59-.63,3.66.27,4.54,1.71.96,1.56.83,3.48-.32,4.87-1.21,1.45-3.06,1.87-4.84,1.11-1.61-.69-3-2.54-2.38-4.03.96-2.27-.48-2.94-1.85-3.86-.33-.22-.66-.44-.97-.69-2.42-1.91-2.79-1.79-4.19,2.34ZM29.91,46.47c-.86-.22-1.44.15-1.68.91-.25.78.1,1.42.89,1.65.78.22,1.4-.07,1.64-.9.23-.81-.11-1.36-.86-1.66Z"/><path class="cls-2" d="M69.43,66c-2.3,7.35-7.99,9.93-14.99,10.57-7.14.65-14.29,1.04-21.37-.59-.94-.22-1.11.03-1.08.94.1,3.97,3.39,6.87,8.22,7.1,3.83.18,7.62-.16,11.35-1.02,1.21-.28,1.63-.06,1.65,1.26.03,3.11.07,3.32-3.13,4.41-9.1,3.1-17.92,2.77-26.1-2.72-3.85-2.58-6.29-6.17-7.11-10.88-.85-4.86-1.5-9.72-1.41-14.66,8.41,0,16.82,0,25.23,0,.03.52.09,1.04.09,1.56.03,4.42.02,4.36,4.45,4.29,1.33-.02,1.68-.52,1.66-1.75-.05-2.16.04-4.31.07-6.47,2.67,0,5.34,0,8.01,0,.22,2.3.22,2.16,4,2.34,1.98.1,2.31-.79,2.24-2.35,2.68,0,5.36,0,8.04,0,.07,2.66.13,5.31.2,7.97Z"/><path class="cls-7" d="M69.43,66c-.07-2.66-.13-5.31-.2-7.97.23-2.54.24-5.1.01-7.63-.26-2.82-1.46-4.02-3.83-4.01-2.47,0-4.06,1.47-4.21,4.21-.13,2.48-.02,4.97-.02,7.45.07,1.56-.25,2.45-2.24,2.35-3.77-.19-3.78-.05-4-2.34.15-2.62.23-5.24-.07-7.84-.29-2.58-1.9-3.92-4.35-3.82-2.3.09-3.52,1.35-3.62,4-.09,2.55,0,5.1.02,7.65-.03,2.16-.12,4.32-.07,6.47.03,1.23-.32,1.73-1.66,1.75-4.43.07-4.42.12-4.45-4.29,0-.52-.06-1.04-.09-1.56.03-3.26.04-6.51.1-9.77.06-3.53,1.01-6.68,3.92-8.97,3.81-2.05,7.44-1.97,10.86.87.82,1.22,1.65,2.44,2.54,3.76.89-1.35,1.67-2.53,2.46-3.72,2.34-2.17,5.14-2.58,8.16-2.14,4.72,1.73,6.51,5.36,6.54,10.11.03,4.73,0,9.45.05,14.18.01,1.03-.29,1.4-1.34,1.34-1.51-.09-3.02-.05-4.53-.07Z"/><path class="cls-4" d="M44.7,41.66c-2.91,2.29-3.86,5.44-3.92,8.97-.05,3.26-.07,6.51-.1,9.77-8.41,0-16.82,0-25.23,0-.58-5.6-.75-11.19.33-16.75.18-.9.41-1.78.9-2.57,8.63,0,17.26-.01,25.89,0,.74,0,1.61-.31,2.13.57ZM29.45,44.35c-1.77.01-3.34,1.68-3.3,3.49.05,1.73,1.57,3.28,3.26,3.32,1.8.04,3.36-1.53,3.37-3.38,0-1.84-1.55-3.44-3.34-3.43Z"/><path class="cls-3" d="M44.7,41.66c-.52-.88-1.39-.57-2.13-.57-8.63-.02-17.26,0-25.89,0,2.48-5.64,7.1-8.6,12.94-9.31,9.47-1.16,19.01-1.22,28.44.29,4.87.78,8.66,3.59,10.64,8.37-3.02-.43-5.82-.02-8.16,2.14-1.29-.99-3.63-1.01-4.99-.04-3.41-2.84-7.05-2.92-10.86-.87Z"/><path class="cls-7" d="M98.22,44.14c-1.03-3.2.48-3.21,2.35-3.15,3.24.11,3.25.03,3.25,3.3,0,6.56-.03,13.13.02,19.69,0,1.2-.19,1.86-1.57,1.64-.64-.1-1.32-.1-1.97,0-1.9.3-2.86-.29-2.22-3-2.12,2.31-4.18,3.54-6.75,3.71-4.75.33-8.13-1.91-10.26-5.91-2.54-4.77-2.51-9.7.19-14.45,3.42-6.04,11.16-7.92,16.95-1.84ZM97.91,53.3c-.01-4.11-2.63-7.03-6.32-7.06-3.76-.03-6.55,3.02-6.52,7.12.03,4.12,2.65,7,6.39,7.02,3.88.02,6.46-2.82,6.45-7.08Z"/><path class="cls-7" d="M145.09,53.4c-.04-7.2,5.06-12.94,11.65-13.12,6.86-.19,12.39,5.6,12.42,13.01.03,7.43-5.35,13.14-12.31,13.06-6.65-.07-11.73-5.66-11.76-12.95ZM163.39,53.43c.02-4.07-2.63-7.06-6.28-7.09-3.56-.02-6.27,2.94-6.3,6.87-.03,4.07,2.65,7.09,6.29,7.09,3.57,0,6.27-2.95,6.3-6.88Z"/><path class="cls-7" d="M117.43,66.38c-4.1-.15-7.21-1.34-9.24-4.64-.49-.79-.64-1.39.42-1.82.48-.2.91-.52,1.35-.81,1.37-.92,2.49-2.02,3.91.29.97,1.57,3.03,1.61,4.87,1.08.9-.26,1.52-.76,1.62-1.74.09-.93-.5-1.46-1.2-1.87-1.71-1.01-3.7-1.27-5.53-1.99-4.58-1.81-6.46-6.21-4.3-10.34,1.55-2.98,4.31-4.11,7.49-4.24,3.44-.13,6.25,1.16,8.3,4.01.6.84.57,1.38-.41,1.81-.48.21-.91.52-1.36.78-1.28.75-2.53,2.05-3.72-.21-.24-.45-1.12-.71-1.73-.78-1.31-.15-2.81-.27-3.3,1.36-.51,1.69.85,2.33,2.09,2.81,1.52.59,3.13.95,4.65,1.56,3.57,1.42,5.26,3.98,5,7.38-.27,3.56-2.52,6.1-6.2,6.95-1.02.24-2.04.52-2.7.42Z"/><path class="cls-7" d="M142.55,44.16c0,2.86,0,2.99-2.87,2.81-1.9-.12-2.49.4-2.34,2.33.19,2.42.04,4.86.05,7.29,0,2.77.6,3.49,3.3,3.36,1.59-.08,2.12.44,1.86,1.93-.02.13,0,.26,0,.39,0,3.68-.53,4.12-4.32,3.53-4.61-.72-6.29-2.47-6.49-7.11-.14-3.28-.14-6.57-.05-9.85.04-1.43-.27-2.13-1.81-1.83-1.95.39-2.61-.46-2.28-2.32.05-.25,0-.52,0-.79,0-2.76,0-2.81,2.7-2.86,1.01-.02,1.33-.29,1.37-1.33.14-3.85.21-3.78,3.8-5.04,1.54-.54,2.18-.39,1.91,1.36-.02.13,0,.26,0,.39.03,1.44-.44,3.21.23,4.23.67,1.01,2.56.28,3.91.35.73.04,1.1.18,1.03.99-.06.72-.01,1.44-.01,2.17Z"/><path class="cls-4" d="M61.19,58.04c0-2.48-.11-4.97.02-7.45.15-2.73,1.73-4.2,4.21-4.21,2.37,0,3.57,1.19,3.83,4.01.23,2.54.22,5.09-.01,7.63-2.68,0-5.36,0-8.04,0Z"/><path class="cls-4" d="M46.95,58.04c-.02-2.55-.11-5.1-.02-7.65.09-2.65,1.32-3.91,3.62-4,2.45-.1,4.06,1.24,4.35,3.82.3,2.6.21,5.23.07,7.84-2.67,0-5.34,0-8.01,0Z"/><path class="cls-4" d="M55.56,42.54c1.37-.97,3.71-.95,4.99.04-.78,1.19-1.57,2.37-2.46,3.72-.89-1.32-1.71-2.54-2.54-3.76Z"/><path class="cls-6" d="M45.78,4.41c3.03-.24,6.06-.48,9.1-.71.03,0,.05-.01.08,0,.81.11,1.4-.25,1.85-.9.25.02.37.22.48.4-.68.5-.84,1.17-.84,2,0,2.93-.07,5.85-.11,8.78-.05,1.65.02,3.31-.1,4.96-.03.37.13.54.43.7.61.33,1.27.5,1.93.68-1.33.82-2.8,1.03-4.33.9-3.03-.26-5.57-1.64-7.91-3.47-.12-.09-.23-.18-.35-.27-.03-.02-.05-.05-.08-.07,0,0,0,0,0,0-.92-.72-1.73-1.56-2.55-2.39-1.5-1.7-2.78-3.53-3.57-5.67-.64-1.72-.94-3.47-.53-5.28.12-.52.26-1.05.56-1.51.14.69.39,1.34.73,1.95.13.23.27.32.53.3,1.14-.09,2.28-.14,3.41-.27.42-.05.85.03,1.26-.11ZM55.72,13.92c.07-.24.05-.49.02-.74V4.83c-1.44,1.52-2.91,3.06-4.37,4.61-.22-.1-.42-.2-.41-.49,1.44-1.52,2.89-3.04,4.33-4.56-1.26,0-2.46.1-3.65.19-1.82.15-3.65.3-5.47.46-.36.02-.72.04-1.07.07-1.17.08-2.33.17-3.5.25-.3.02-.38.12-.18.39.52.7,1.05,1.4,1.61,2.07,1.35,1.58,2.76,3.1,4.27,4.52,1.52,1.45,3.1,2.84,4.75,4.14,1.05.84,2.14,1.62,3.27,2.34.24.15.34.13.34-.19,0-1.54,0-3.09.01-4.63.01-.03.02-.06.03-.08Z"/><path class="cls-6" d="M49.12,31.65c.81,0,1.62,0,2.44,0,.48,0,.56.09.57.55.03,1,.06,2,.09,2.99.02.52-.02.57-.55.59-1.13.06-2.26.05-3.39.02-2.53-.08-5.06.04-7.59.02-2.73-.03-5.46-.03-8.19.02-.41,0-.82-.03-1.24-.04-.24,0-.34-.13-.31-.36.12-1.13,0-2.26.02-3.39,0-.28.09-.38.36-.38.73,0,1.46-.02,2.2-.04,5.2,0,10.4,0,15.6,0Z"/><path class="cls-6" d="M44.25,23.82c-.02,1.17-.04,2.34-.06,3.51,0,.03,0,.06,0,.1,0,.42,0,.85,0,1.27-.1.08-.21.1-.34.09-1.69-.03-3.39.12-5.08.06,0-.05,0-.1,0-.15,0-.03,0-.07,0-.1,0-.13,0-.25,0-.38.06-.54.05-1.07.02-1.61,0-1.95,0-3.91,0-5.86,0-.67.04-1.33.36-1.94.42-.79,1.06-1.27,1.95-1.41.04,0,.07,0,.11-.01.07-.02.14-.04.21-.07.12.03.23.06.35.08,1.11.18,1.91.75,2.26,1.85.01.05.02.11.04.16-.06.11-.05.19.06.26.01.1.02.2.03.3,0,.06.01.11.02.17.02.21.04.42.06.63-.11.67-.03,1.34-.04,2.02,0,.34-.08.69.04,1.02ZM41.54,18.79c-.73,0-1.36.61-1.37,1.32,0,.8.54,1.36,1.33,1.37.72,0,1.37-.64,1.36-1.38,0-.7-.62-1.31-1.33-1.32Z"/><path class="cls-1" d="M38.76,28.85c1.69.06,3.39-.1,5.08-.06.12,0,.24-.02.34-.09.14.11.3.08.46.08,1.33,0,2.65.02,3.98,0,.41,0,.52.13.51.53-.03.78,0,1.57,0,2.35-5.2,0-10.4,0-15.6,0,.03-.81.07-1.62.07-2.42,0-.36.14-.47.47-.44,1.56.13,3.13.03,4.69.07Z"/><path class="cls-1" d="M57.29,3.2c-.12-.19-.23-.38-.48-.4.01-.16-.08-.28-.13-.41-.31-.79,0-1.68.74-2.15.64-.41,1.71-.25,2.24.34.55.6.58,1.54.09,2.21-.53.72-1.31.92-2.12.55-.11-.05-.22-.09-.33-.14Z"/><path class="cls-1" d="M58.6,20.32c-.66-.18-1.32-.34-1.93-.68-.3-.16-.46-.33-.43-.7.12-1.65.05-3.31.1-4.96-.11,1.11.81,1.69,1.3,2.49.57.92,1.23,1.8,1.44,2.9.09.49,0,.71-.48.95Z"/><path class="cls-1" d="M45.78,4.41c-.41.14-.84.06-1.26.11-1.13.13-2.27.18-3.41.27-.26.02-.4-.07-.53-.3-.35-.61-.6-1.26-.73-1.95.3-.63.88-.75,1.72-.37,1.18.53,2.28,1.22,3.32,1.97.29.21.57.25.89.27Z"/><path class="cls-1" d="M44.04,19.26c-.35-1.11-1.14-1.67-2.26-1.85-.12-.02-.23-.05-.35-.08.28-.47.68-.83,1.05-1.22.33-.34.68-.66.9-1.09.82.83,1.63,1.67,2.55,2.39-.21.02-.32.18-.43.32-.45.55-.97,1.03-1.46,1.53Z"/><path class="cls-1" d="M45.94,17.41s.05.05.08.07c-.03-.02-.05-.05-.08-.07Z"/><path class="cls-1" d="M38.78,28.6s0,.07,0,.1c-.04-.03-.04-.07,0-.1Z"/><path class="cls-1" d="M41.23,17.39s-.07,0-.11.01c.04,0,.07,0,.11-.01Z"/><path class="cls-1" d="M55.69,14c0,1.54-.02,3.09-.01,4.63,0,.32-.1.34-.34.19-1.13-.72-2.22-1.5-3.27-2.34-1.65-1.31-3.22-2.7-4.75-4.14-1.51-1.43-2.93-2.94-4.27-4.52-.57-.67-1.09-1.37-1.61-2.07-.2-.27-.12-.37.18-.39,1.17-.08,2.33-.17,3.5-.25.36-.03.71-.04,1.07-.07,1.29,1.04,2.6,2.06,3.82,3.19.29.27.54.64.97.73-.01.29.19.39.41.49.18.19.36.39.54.58,1.31,1.28,2.58,2.59,3.77,3.99Z"/><path class="cls-1" d="M55.72,13.92c-.05-.25-.08-.49.02-.74.02.25.05.49-.02.74Z"/><path class="cls-1" d="M41.54,18.79c.71,0,1.33.62,1.33,1.32,0,.74-.64,1.39-1.36,1.38-.79,0-1.34-.57-1.33-1.37,0-.72.64-1.33,1.37-1.32Z"/><text class="cls-8" transform="translate(172.62 66.02)"><tspan x="0" y="0">radar</tspan></text></g></svg>