<svg xmlns="http://www.w3.org/2000/svg" viewBox="0 0 48 48" id="radar">
  <defs>
    <linearGradient id="a" x1="6" x2="42" y1="24" y2="24" gradientUnits="userSpaceOnUse">
      <stop offset="0" stop-color="#f12711"></stop>
      <stop offset="1" stop-color="#f5af19"></stop>
    </linearGradient>
  </defs>
  <path fill="url(#a)" d="M42,24A18,18,0,1,1,18.71,6.78a1,1,0,0,1,.58,1.92A16,16,0,1,0,40,24a14.78,14.78,0,0,0-.18-2.36,1,1,0,0,1,2-.32A17.77,17.77,0,0,1,42,24ZM18.58,12.17A13,13,0,1,0,37,24.25a1,1,0,0,0-1-1,1,1,0,0,0-1,1A11,11,0,1,1,19.42,14a1,1,0,1,0-.84-1.82ZM23,19.1V7a1,1,0,0,1,1-1,17.92,17.92,0,0,1,16,9.67l0,0v0h0a.11.11,0,0,1,0,0,1,1,0,0,1-.4,1.28L28.91,23.14A4.82,4.82,0,0,1,29,24a5,5,0,1,1-6-4.9ZM25,8V19.1a5,5,0,0,1,3.17,2.16l9.57-5.45A15.94,15.94,0,0,0,25,8ZM21,24a3,3,0,1,0,3-3A3,3,0,0,0,21,24Z"></path>
</svg>
